# xmcd CD database file
#
# Track frame offsets:
#	150
#	13475
#	26187
#	39895
#	52602
#	80530
#	93967
#	107712
#	119947
#	133925
#	147067
#	159025
#
# Disc length: 2272 seconds
#
# Revision: 1
# Processed by: cddbd v1.4PL0 Copyright (c) Steve Scherf et al.
# Submitted via: CDex 1.40Beta8
#
DISCID=9908de0c
DTITLE=BB King/Pee Wee Crayton - Blue On Blues
DYEAR=1900
DGENRE=Blues
TTITLE0=Woke Up This Morning (My Baby's Gone)
TTITLE1=Please Love Me
TTITLE2=You Upset Me Baby
TTITLE3=Everyday (I Have The Blues)
TTITLE4=Sweet Sixteen (Part I and II)
TTITLE5=Rock Me Baby
TTITLE6=Blues After Hours
TTITLE7=Central Avenue Blues
TTITLE8=Texas Hop
TTITLE9=I Love You So
TTITLE10=Poppa Stoppa
TTITLE11=You Know--Yeah
EXTD=ID3G: 0
EXTT0=
EXTT1=
EXTT2=
EXTT3=
EXTT4=
EXTT5=
EXTT6=
EXTT7=
EXTT8=
EXTT9=
EXTT10=
EXTT11=
PLAYORDER=
